<?xml version="1.0" encoding="UTF-8" standalone="no"?>
<!DOCTYPE svg PUBLIC "-//W3C//DTD SVG 1.1//EN" "http://www.w3.org/Graphics/SVG/1.1/DTD/svg11.dtd">
<svg width="100%" height="100%" viewBox="0 0 930 260" version="1.1" xmlns="http://www.w3.org/2000/svg" xmlns:xlink="http://www.w3.org/1999/xlink" xml:space="preserve" xmlns:serif="http://www.serif.com/" style="fill-rule:evenodd;clip-rule:evenodd;stroke-linecap:round;stroke-linejoin:round;stroke-miterlimit:1.5;">
    <g transform="matrix(1.04624,0,0,1.4253,275.631,-490.804)">
        <path d="M583.031,362.532C583.031,356.346 576.189,351.323 567.761,351.323L527.27,351.323C518.842,351.323 512,356.346 512,362.532L512,384.95C512,391.137 518.842,396.159 527.27,396.159L535.085,396.159L526.206,415.374L545.74,396.159L567.761,396.159C576.189,396.159 583.031,391.137 583.031,384.95L583.031,362.532Z" style="fill:none;stroke:white;stroke-width:0.72px;"/>
    </g>
    <g transform="matrix(-1.27746,0,0,1,1452.52,-314.147)">
        <path d="M583.031,362.532C583.031,356.346 579.1,351.323 574.257,351.323L520.774,351.323C515.932,351.323 512,356.346 512,362.532L512,384.95C512,391.137 515.932,396.159 520.774,396.159L535.085,396.159L526.206,415.374L545.74,396.159L574.257,396.159C579.1,396.159 583.031,391.137 583.031,384.95L583.031,362.532Z" style="fill:none;stroke:white;stroke-width:0.79px;"/>
    </g>
    <g transform="matrix(1,0,0,1,-32.2866,-63.0742)">
        <g transform="matrix(84,0,0,84,47.6279,233.896)">
            <path d="M0.152,-0.718L0.285,-0.718L0.451,-0.217L0.619,-0.718L0.753,-0.718L0.873,-0L0.741,-0L0.664,-0.454L0.511,-0L0.391,-0L0.24,-0.454L0.161,-0L0.027,-0L0.152,-0.718Z" style="fill:white;fill-rule:nonzero;stroke:white;stroke-width:0.01px;stroke-linecap:butt;stroke-miterlimit:2;"/>
        </g>
        <g transform="matrix(84,0,0,84,123.22,233.896)">
            <path d="M0.077,-0.718L0.214,-0.718L0.214,-0.254C0.214,-0.214 0.218,-0.185 0.225,-0.169C0.232,-0.152 0.243,-0.139 0.26,-0.129C0.276,-0.119 0.295,-0.114 0.318,-0.114C0.342,-0.114 0.363,-0.12 0.38,-0.131C0.398,-0.142 0.41,-0.156 0.416,-0.173C0.423,-0.19 0.426,-0.223 0.426,-0.271L0.426,-0.718L0.563,-0.718L0.563,-0.29C0.563,-0.218 0.559,-0.168 0.551,-0.14C0.543,-0.112 0.528,-0.085 0.505,-0.059C0.482,-0.033 0.455,-0.013 0.425,-0.001C0.395,0.012 0.361,0.018 0.321,0.018C0.269,0.018 0.223,0.006 0.185,-0.018C0.146,-0.042 0.119,-0.072 0.102,-0.108C0.085,-0.144 0.077,-0.204 0.077,-0.29L0.077,-0.718Z" style="fill:white;fill-rule:nonzero;stroke:white;stroke-width:0.01px;stroke-linecap:butt;stroke-miterlimit:2;"/>
        </g>
        <g transform="matrix(84,0,0,84,176.991,233.896)">
            <path d="M0.082,-0.718L0.219,-0.718L0.219,-0.13L0.418,-0.13L0.418,-0L0.082,-0L0.082,-0.718Z" style="fill:white;fill-rule:nonzero;stroke:white;stroke-width:0.01px;stroke-linecap:butt;stroke-miterlimit:2;"/>
        </g>
        <g transform="matrix(84,0,0,84,213.946,233.896)">
            <path d="M0.011,-0.718L0.408,-0.718L0.408,-0.583L0.277,-0.583L0.277,-0L0.139,-0L0.139,-0.583L0.011,-0.583L0.011,-0.718Z" style="fill:white;fill-rule:nonzero;stroke:white;stroke-width:0.01px;stroke-linecap:butt;stroke-miterlimit:2;"/>
        </g>
        <g transform="matrix(84,0,0,84,249.22,233.896)">
            <rect x="0.072" y="-0.718" width="0.136" height="0.718" style="fill:white;fill-rule:nonzero;stroke:white;stroke-width:0.01px;stroke-linecap:butt;stroke-miterlimit:2;"/>
        </g>
        <g transform="matrix(84,0,0,84,272.722,233.896)">
            <path d="M0.742,-0.592L0.647,-0.501C0.582,-0.57 0.508,-0.604 0.427,-0.604C0.358,-0.604 0.301,-0.581 0.254,-0.534C0.207,-0.487 0.183,-0.429 0.183,-0.36C0.183,-0.312 0.194,-0.27 0.214,-0.233C0.235,-0.195 0.265,-0.166 0.303,-0.145C0.341,-0.124 0.383,-0.113 0.429,-0.113C0.469,-0.113 0.505,-0.121 0.538,-0.136C0.571,-0.15 0.607,-0.177 0.647,-0.216L0.739,-0.12C0.686,-0.068 0.636,-0.032 0.589,-0.012C0.542,0.008 0.488,0.018 0.427,0.018C0.316,0.018 0.224,-0.017 0.153,-0.088C0.082,-0.159 0.046,-0.25 0.046,-0.36C0.046,-0.432 0.063,-0.496 0.095,-0.551C0.127,-0.607 0.174,-0.652 0.234,-0.686C0.295,-0.719 0.36,-0.736 0.429,-0.736C0.488,-0.736 0.545,-0.724 0.6,-0.699C0.655,-0.674 0.702,-0.638 0.742,-0.592Z" style="fill:white;fill-rule:nonzero;stroke:white;stroke-width:0.01px;stroke-linecap:butt;stroke-miterlimit:2;"/>
        </g>
        <g transform="matrix(84,0,0,84,338.224,233.896)">
            <path d="M0.421,-0.736C0.523,-0.736 0.61,-0.7 0.683,-0.626C0.756,-0.552 0.793,-0.463 0.793,-0.357C0.793,-0.252 0.757,-0.163 0.685,-0.091C0.613,-0.018 0.525,0.018 0.422,0.018C0.314,0.018 0.225,-0.019 0.153,-0.094C0.082,-0.168 0.046,-0.257 0.046,-0.359C0.046,-0.428 0.063,-0.491 0.096,-0.549C0.129,-0.606 0.175,-0.652 0.233,-0.686C0.291,-0.719 0.354,-0.736 0.421,-0.736ZM0.42,-0.603C0.353,-0.603 0.297,-0.579 0.252,-0.533C0.207,-0.487 0.184,-0.428 0.184,-0.357C0.184,-0.278 0.213,-0.215 0.27,-0.168C0.314,-0.132 0.365,-0.114 0.422,-0.114C0.487,-0.114 0.542,-0.138 0.588,-0.185C0.633,-0.231 0.656,-0.289 0.656,-0.358C0.656,-0.426 0.633,-0.484 0.587,-0.531C0.541,-0.579 0.485,-0.603 0.42,-0.603Z" style="fill:white;fill-rule:nonzero;stroke:white;stroke-width:0.01px;stroke-linecap:butt;stroke-miterlimit:2;"/>
        </g>
        <g transform="matrix(84,0,0,84,408.77,233.896)">
            <path d="M0.152,-0.718L0.285,-0.718L0.451,-0.217L0.619,-0.718L0.753,-0.718L0.873,-0L0.741,-0L0.664,-0.454L0.511,-0L0.391,-0L0.24,-0.454L0.161,-0L0.027,-0L0.152,-0.718Z" style="fill:white;fill-rule:nonzero;stroke:white;stroke-width:0.01px;stroke-linecap:butt;stroke-miterlimit:2;"/>
        </g>
        <g transform="matrix(84,0,0,84,484.362,233.896)">
            <path d="M0.152,-0.718L0.285,-0.718L0.451,-0.217L0.619,-0.718L0.753,-0.718L0.873,-0L0.741,-0L0.664,-0.454L0.511,-0L0.391,-0L0.24,-0.454L0.161,-0L0.027,-0L0.152,-0.718Z" style="fill:white;fill-rule:nonzero;stroke:white;stroke-width:0.01px;stroke-linecap:butt;stroke-miterlimit:2;"/>
        </g>
        <g transform="matrix(84,0,0,84,559.954,233.896)">
            <path d="M0.077,-0.718L0.214,-0.718L0.214,-0.254C0.214,-0.214 0.218,-0.185 0.225,-0.169C0.232,-0.152 0.243,-0.139 0.26,-0.129C0.276,-0.119 0.295,-0.114 0.318,-0.114C0.342,-0.114 0.363,-0.12 0.38,-0.131C0.398,-0.142 0.41,-0.156 0.416,-0.173C0.423,-0.19 0.426,-0.223 0.426,-0.271L0.426,-0.718L0.563,-0.718L0.563,-0.29C0.563,-0.218 0.559,-0.168 0.551,-0.14C0.543,-0.112 0.528,-0.085 0.505,-0.059C0.482,-0.033 0.455,-0.013 0.425,-0.001C0.395,0.012 0.361,0.018 0.321,0.018C0.269,0.018 0.223,0.006 0.185,-0.018C0.146,-0.042 0.119,-0.072 0.102,-0.108C0.085,-0.144 0.077,-0.204 0.077,-0.29L0.077,-0.718Z" style="fill:white;fill-rule:nonzero;stroke:white;stroke-width:0.01px;stroke-linecap:butt;stroke-miterlimit:2;"/>
        </g>
        <g transform="matrix(84,0,0,84,613.726,233.896)">
            <path d="M0.083,-0.718L0.214,-0.718L0.521,-0.246L0.521,-0.718L0.658,-0.718L0.658,-0L0.526,-0L0.219,-0.471L0.219,-0L0.083,-0L0.083,-0.718Z" style="fill:white;fill-rule:nonzero;stroke:white;stroke-width:0.01px;stroke-linecap:butt;stroke-miterlimit:2;"/>
        </g>
        <g transform="matrix(84,0,0,84,675.864,233.896)">
            <rect x="0.072" y="-0.718" width="0.136" height="0.718" style="fill:white;fill-rule:nonzero;stroke:white;stroke-width:0.01px;stroke-linecap:butt;stroke-miterlimit:2;"/>
        </g>
        <g transform="matrix(84,0,0,84,699.366,233.896)">
            <path d="M0.742,-0.592L0.647,-0.501C0.582,-0.57 0.508,-0.604 0.427,-0.604C0.358,-0.604 0.301,-0.581 0.254,-0.534C0.207,-0.487 0.183,-0.429 0.183,-0.36C0.183,-0.312 0.194,-0.27 0.214,-0.233C0.235,-0.195 0.265,-0.166 0.303,-0.145C0.341,-0.124 0.383,-0.113 0.429,-0.113C0.469,-0.113 0.505,-0.121 0.538,-0.136C0.571,-0.15 0.607,-0.177 0.647,-0.216L0.739,-0.12C0.686,-0.068 0.636,-0.032 0.589,-0.012C0.542,0.008 0.488,0.018 0.427,0.018C0.316,0.018 0.224,-0.017 0.153,-0.088C0.082,-0.159 0.046,-0.25 0.046,-0.36C0.046,-0.432 0.063,-0.496 0.095,-0.551C0.127,-0.607 0.174,-0.652 0.234,-0.686C0.295,-0.719 0.36,-0.736 0.429,-0.736C0.488,-0.736 0.545,-0.724 0.6,-0.699C0.655,-0.674 0.702,-0.638 0.742,-0.592Z" style="fill:white;fill-rule:nonzero;stroke:white;stroke-width:0.01px;stroke-linecap:butt;stroke-miterlimit:2;"/>
        </g>
        <g transform="matrix(84,0,0,84,764.868,233.896)">
            <path d="M0.301,-0.718L0.44,-0.718L0.716,-0L0.574,-0L0.518,-0.148L0.225,-0.148L0.166,-0L0.024,-0L0.301,-0.718ZM0.371,-0.528L0.275,-0.281L0.467,-0.281L0.371,-0.528Z" style="fill:white;fill-rule:nonzero;stroke:white;stroke-width:0.01px;stroke-linecap:butt;stroke-miterlimit:2;"/>
        </g>
        <g transform="matrix(84,0,0,84,827.007,233.896)">
            <path d="M0.083,-0.718L0.244,-0.718C0.349,-0.718 0.426,-0.705 0.477,-0.679C0.528,-0.654 0.57,-0.611 0.603,-0.553C0.635,-0.495 0.652,-0.427 0.652,-0.349C0.652,-0.294 0.643,-0.243 0.624,-0.197C0.606,-0.15 0.581,-0.112 0.548,-0.081C0.516,-0.05 0.481,-0.029 0.443,-0.018C0.405,-0.006 0.34,-0 0.247,-0L0.083,-0L0.083,-0.718ZM0.218,-0.586L0.218,-0.133L0.282,-0.133C0.344,-0.133 0.39,-0.14 0.418,-0.155C0.446,-0.169 0.469,-0.193 0.487,-0.227C0.505,-0.261 0.514,-0.303 0.514,-0.352C0.514,-0.429 0.492,-0.488 0.45,-0.53C0.411,-0.568 0.35,-0.586 0.265,-0.586L0.218,-0.586Z" style="fill:white;fill-rule:nonzero;stroke:white;stroke-width:0.01px;stroke-linecap:butt;stroke-miterlimit:2;"/>
        </g>
        <g transform="matrix(84,0,0,84,885.823,233.896)">
            <path d="M0.421,-0.736C0.523,-0.736 0.61,-0.7 0.683,-0.626C0.756,-0.552 0.793,-0.463 0.793,-0.357C0.793,-0.252 0.757,-0.163 0.685,-0.091C0.613,-0.018 0.525,0.018 0.422,0.018C0.314,0.018 0.225,-0.019 0.153,-0.094C0.082,-0.168 0.046,-0.257 0.046,-0.359C0.046,-0.428 0.063,-0.491 0.096,-0.549C0.129,-0.606 0.175,-0.652 0.233,-0.686C0.291,-0.719 0.354,-0.736 0.421,-0.736ZM0.42,-0.603C0.353,-0.603 0.297,-0.579 0.252,-0.533C0.207,-0.487 0.184,-0.428 0.184,-0.357C0.184,-0.278 0.213,-0.215 0.27,-0.168C0.314,-0.132 0.365,-0.114 0.422,-0.114C0.487,-0.114 0.542,-0.138 0.588,-0.185C0.633,-0.231 0.656,-0.289 0.656,-0.358C0.656,-0.426 0.633,-0.484 0.587,-0.531C0.541,-0.579 0.485,-0.603 0.42,-0.603Z" style="fill:white;fill-rule:nonzero;stroke:white;stroke-width:0.01px;stroke-linecap:butt;stroke-miterlimit:2;"/>
        </g>
    </g>
    <g transform="matrix(1,0,0,1,146.424,-6.41344)">
        <text x="47.628px" y="233.896px" style="font-family:'CenturyGothic', 'Century Gothic', sans-serif;font-size:48px;fill:white;stroke:white;stroke-width:1px;stroke-linecap:butt;stroke-miterlimit:2;">Global Communication</text>
    </g>
    <g transform="matrix(1,0,0,1,451.467,-387.894)">
        <text x="372.812px" y="443.328px" style="font-family:'SimSun';font-size:48px;fill:white;stroke:white;stroke-width:1px;stroke-linecap:butt;stroke-miterlimit:2;">語</text>
    </g>
    <g transform="matrix(0.772552,0,0,0.772552,659,-259.105)">
        <g transform="matrix(48,0,0,48,72.263,430.189)">
            <path d="M0.734,-0.656L0.631,-0.656L0.631,-0L0.551,-0L0.551,-0.274L0.295,-0.274L0.295,-0.204C0.295,-0.199 0.295,-0.194 0.294,-0.188C0.293,-0.183 0.291,-0.178 0.289,-0.173C0.286,-0.168 0.283,-0.164 0.279,-0.161C0.275,-0.158 0.27,-0.157 0.264,-0.157C0.256,-0.157 0.247,-0.159 0.237,-0.164C0.227,-0.169 0.216,-0.175 0.205,-0.183C0.194,-0.191 0.184,-0.2 0.173,-0.21C0.163,-0.22 0.153,-0.231 0.145,-0.242C0.136,-0.253 0.13,-0.264 0.125,-0.275C0.119,-0.286 0.117,-0.297 0.117,-0.306C0.117,-0.32 0.122,-0.33 0.131,-0.336C0.141,-0.342 0.154,-0.345 0.17,-0.345L0.217,-0.345L0.217,-0.613C0.217,-0.63 0.213,-0.643 0.205,-0.652C0.197,-0.661 0.187,-0.666 0.174,-0.666C0.161,-0.666 0.149,-0.66 0.14,-0.65C0.131,-0.64 0.126,-0.627 0.126,-0.612C0.126,-0.609 0.126,-0.605 0.127,-0.601C0.128,-0.597 0.129,-0.592 0.132,-0.587C0.134,-0.581 0.138,-0.575 0.144,-0.569C0.149,-0.562 0.156,-0.555 0.165,-0.547L0.121,-0.494C0.106,-0.502 0.094,-0.511 0.084,-0.521C0.075,-0.531 0.068,-0.541 0.063,-0.552C0.057,-0.562 0.054,-0.572 0.052,-0.582C0.05,-0.592 0.049,-0.601 0.049,-0.61C0.049,-0.625 0.052,-0.641 0.057,-0.656C0.062,-0.671 0.07,-0.685 0.081,-0.697C0.092,-0.709 0.105,-0.719 0.121,-0.727C0.137,-0.734 0.156,-0.738 0.178,-0.738C0.197,-0.738 0.213,-0.735 0.228,-0.729C0.243,-0.722 0.255,-0.713 0.265,-0.702C0.275,-0.69 0.282,-0.677 0.287,-0.66C0.292,-0.644 0.295,-0.626 0.295,-0.606L0.295,-0.345L0.551,-0.345L0.551,-0.728L0.734,-0.728L0.734,-0.656Z" style="fill:white;fill-rule:nonzero;stroke:white;stroke-width:0.03px;stroke-linecap:butt;stroke-miterlimit:2;"/>
        </g>
        <g transform="matrix(48,0,0,48,106.669,430.189)">
            <path d="M0.277,-0.656L0.174,-0.656L0.174,-0L0.094,-0L0.094,-0.656L-0.017,-0.656L-0.017,-0.728L0.277,-0.728L0.277,-0.656Z" style="fill:white;fill-rule:nonzero;stroke:white;stroke-width:0.03px;stroke-linecap:butt;stroke-miterlimit:2;"/>
        </g>
        <g transform="matrix(48,0,0,48,119.138,430.189)">
            <path d="M0.624,-0.656L0.521,-0.656L0.521,-0L0.441,-0L0.441,-0.235L0.439,-0.236C0.416,-0.216 0.391,-0.202 0.364,-0.193C0.336,-0.184 0.308,-0.18 0.281,-0.18C0.253,-0.18 0.227,-0.184 0.204,-0.192C0.181,-0.2 0.161,-0.212 0.145,-0.229C0.128,-0.246 0.115,-0.267 0.106,-0.293C0.096,-0.318 0.092,-0.349 0.092,-0.384L0.092,-0.656L-0.017,-0.656L-0.017,-0.728L0.624,-0.728L0.624,-0.656ZM0.391,-0.296L0.173,-0.603L0.171,-0.602L0.171,-0.388C0.171,-0.368 0.173,-0.349 0.176,-0.333C0.179,-0.317 0.185,-0.303 0.194,-0.292C0.202,-0.28 0.213,-0.271 0.227,-0.265C0.24,-0.259 0.257,-0.256 0.278,-0.256C0.3,-0.256 0.321,-0.26 0.34,-0.266C0.358,-0.273 0.376,-0.282 0.392,-0.293L0.391,-0.296ZM0.441,-0.656L0.221,-0.656L0.221,-0.655L0.438,-0.339L0.441,-0.343L0.441,-0.656Z" style="fill:white;fill-rule:nonzero;stroke:white;stroke-width:0.03px;stroke-linecap:butt;stroke-miterlimit:2;"/>
        </g>
        <g transform="matrix(48,0,0,48,148.247,430.189)">
            <path d="M0.277,-0.656L0.174,-0.656L0.174,-0L0.094,-0L0.094,-0.656L-0.017,-0.656L-0.017,-0.728L0.277,-0.728L0.277,-0.656Z" style="fill:white;fill-rule:nonzero;stroke:white;stroke-width:0.03px;stroke-linecap:butt;stroke-miterlimit:2;"/>
        </g>
    </g>
    <g transform="matrix(1,0,0,1,-29.6052,-265.489)">
        <path d="M173.678,449.043L823.317,445.758" style="fill:none;stroke:white;stroke-width:0.9px;"/>
    </g>
</svg>
